<?xml version="1.0" encoding="UTF-8"?>
<svg id="Layer_1" xmlns="http://www.w3.org/2000/svg" version="1.1" viewBox="0 0 3000 3000">
  <defs>
    <style>
      .st0 {
        fill: #fff;
      }

      .st1 {
        fill: #f26522;
      }
    </style>
  </defs>
  <circle class="st1" cx="1500" cy="1500" r="1444.6"/>
  <g>
    <path class="st0" d="M1712.08,1287.95c-11.82-18.06-78.31-1.66-113.37,49.93l-53.61,78.89c-6.78-75.24,24.04-144.34,88.81-179.85,53.3-29.22,122.71-37.83,180.27-17.72,57.92,20.25,69.34,128.12,139.94,110.3,41.07-10.36,66.94-42.07,105.42-64.47-12.89,55.11-56,99.08-106.84,119.2-43.78,17.33-85.76-7.79-114.01-44.6l-49.12,82.6c-25.76,43.32,71.13,61.65,106.44,121.37,31.81,53.81,41.98,115.86,57.46,175.33,188.97-67.62,294.85-268.06,241.83-463.15-48.71-179.24-220.53-294.48-401.52-279.42-188.97,15.72-324.73,157.91-356.18,344.17l-93.43,459.94c35.52-17.57,72.91-33.99,112.85-44.04l95.93-88.16c44.69-41.07,73.24-89.39,89.5-152.97,26.16,25.25,47.26,39.61,77.55,54.31-20.54,43.75-49.77,81.16-87.44,110.22l-69.32,53.47c58.24.04,110.39-13.19,168.83-1.64-203.11,40.23-334.02,69.16-467.97,237.27-55.13,69.19-133.78,112.92-229.27,112.72l175.46-843.86c43.95-211.36,168.33-393.28,367.08-484.5,152.91-70.18,325.57-79.8,488.01-24.45-34.86,35.27-67.31,73.19-74.45,121.41-8.55,57.79,6.08,115.39,52.85,148.94,6.65-.1,12.65-12.66,12.86-17.26.3-6.83-4.2-14.81-10.44-21.92-67.68-77.14,1.32-182.52,23.44-188.31,5.78-1.51,15.33,10.38,13.77,14.94-2.23,6.54-5.59,17.16-11.1,23.9-40.4,49.33-34.37,119.84,17.11,152.11,53.25,33.38,118.8,17.38,149.3-42.01,5.56-10.82,17.57-35.98,33.38-27.95,16.84,8.55-1,28.14-5.54,37.14-32.02,63.48-98.49,93.5-165.6,70.38-7.83,8.19-13.12,17.01-17.5,26.87,107.99,36.97,196.93-23.58,234.08-134.48,36.41,30.22,59.51,65.38,84.95,107.1,128.99,211.48,130.25,475.06-2.84,687.8-125.46,200.55-356.12,319.71-602.03,303.63-29.64-1.94-71.13,6.5-77.76,37.58l-50.84,238.39c-28.67,134.43-135.85,245.14-281.02,250.02l105.05-502.74c26.17-125.26,123.92-212.13,248.14-233.91l166.4-29.17-48.42-102.57c-11.87-25.15-27.46-49.84-53.14-62.73l-106.31-53.35c-47.98-24.08-51.69-78.49-22.62-121.05,23.12-33.85,47.33-84.82,34.99-103.68Z"/>
    <path class="st0" d="M701.51,2143.53c-112.34-75.47-116.97-242.41-85.5-373.12l120.13-499.02c36.5-151.61,180.59-246.99,334.86-244.83l-243.22,1020.62c-13.86,58.17.16,112.6,53.92,138.39-65,8.14-127.29-6.49-180.19-42.04Z"/>
    <path class="st0" d="M1261.74,2253.22c-32.3,119.95-143.94,241.88-264.14,242.31l-222.12.81c-65.72.24-129.5-23.09-180.2-62.15-102.45-78.93-110.74-213.48-76.43-336.1l34.53-123.41c13.94,93.45,48.96,173.25,127.15,220.48,42.45,25.64,93.77,43.69,144.53,43.37l231.02-1.42c97.41-.6,181.77-55.39,237.61-130.42-4.13,55.99-19.27,99.38-31.96,146.52Z"/>
    <path class="st0" d="M2190.35,917.52c-28.34,23.25-62.19,18.96-85.93,3.67-27.73-17.87-39.36-50.95-28.94-82.99,6.33-19.46,16.82-35.76,31.08-52.05,9.84,8.84,28.14,23.8,38.2,15.62,15.69-12.75-39.6-26.18-26.22-41.11,12.94-14.43,34.82,20.14,51.09,3.31-6.26-16.93-24.85-20.08-32.73-28.87-.27-11.05,10.27-15.91,14.57-13.69l18.66,9.61c4.69,2.42,8.93,4.86,12.97,5.43,4.83.68,7.12-4,6.18-8.02-3.93-16.95-34.81-23.53-25.96-34.89,26.65-34.21,72.67-37.84,103.36-13.6,29.88,23.6,40.62,67.64,13.95,100.18-11.85-9.44-30.78-23.99-39.37-17.43-16.41,12.52,27.07,27.31,30.04,34.81,1.53,3.86-6.84,16.71-10.77,15.3-13.06-4.69-22.23-16.54-37.58-16.41-4.44.04-6.44,9.02-4.27,12.57,5.71,9.34,19.01,10.97,27.13,21.25,4.18,5.3-.35,9.19-3.01,11.29-12.75,10.08-36.56-25.51-47.6-1.95,3.05,10.41,21.27,18.12,33.98,24.3-8.94,18.58-20.24,38.42-38.84,53.68Z"/>
    <path class="st0" d="M1816.96,1078.79c33.69-14.32,68.19,7.15,80.98,36.68,12.49,28.84-4.05,66.85-34.33,79.08-30.06,12.14-64.58-2.29-78.43-29.39-15.58-30.47-5.19-70.65,31.77-86.37Z"/>
    <path class="st0" d="M2427.61,690.5c-24.88-112.83-125.2-179.69-238.83-161.08-4.46.73-8.98,1.18-11.67.64-3.33-.67-7.27-6.16-6.75-8.81,7.74-39.41,235.49-28.14,277.55,161.95,1.76,7.94-19.07,12.9-20.3,7.3Z"/>
    <path class="st0" d="M2374.69,691.37c-20.35-81.11-99.91-127.3-181.62-111.09-5.48,1.09-13.04-6.66-12.38-9.96,6.56-32.65,179.13-22.18,214.3,114.33,1.55,6.03,2.02,11.42.89,14.35-1.54,3.99-5.72,4.63-9.23,4.35-7.32-.6-9.75-3.19-11.96-11.99Z"/>
    <path class="st0" d="M2326.56,703.51c-33.82-101.77-138.12-63.91-133.71-84.04,6.17-28.16,126.39-17.49,153.74,76.79,2.23,7.7-.41,12.65-4.85,16.26-4.56,3.71-12.44-.75-15.18-9.01Z"/>
  </g>
</svg>
